<svg width="130" height="130" viewBox="0 0 130 130" fill="none" xmlns="http://www.w3.org/2000/svg">
<rect width="130" height="130" rx="25" fill="white"/>
<path d="M73.1818 64.8182C79.2091 64.8182 84.0909 59.9364 84.0909 53.9091C84.0909 47.8818 79.2091 43 73.1818 43C67.1545 43 62.2727 47.8818 62.2727 53.9091C62.2727 59.9364 67.1545 64.8182 73.1818 64.8182ZM48.6364 59.3636V51.1818H43.1818V59.3636H35V64.8182H43.1818V73H48.6364V64.8182H56.8182V59.3636H48.6364ZM73.1818 70.2727C65.9 70.2727 51.3636 73.9273 51.3636 81.1818V86.6364H95V81.1818C95 73.9273 80.4636 70.2727 73.1818 70.2727Z" fill="black"/>
</svg>
