<svg width="130" height="130" viewBox="0 0 130 130" fill="none" xmlns="http://www.w3.org/2000/svg">
<rect y="0.00012207" width="130" height="130" rx="25" fill="white"/>
<path d="M91.8421 84.3685V87.5264C91.8421 91.0001 89 93.8422 85.5263 93.8422H41.3158C37.8105 93.8422 35 91.0001 35 87.5264V43.3159C35 39.8422 37.8105 37.0001 41.3158 37.0001H85.5263C89 37.0001 91.8421 39.8422 91.8421 43.3159V46.4738H63.4211C59.9158 46.4738 57.1053 49.3159 57.1053 52.7896V78.0528C57.1053 81.5264 59.9158 84.3685 63.4211 84.3685H91.8421ZM63.4211 78.0528H95V52.7896H63.4211V78.0528ZM76.0526 70.158C73.4316 70.158 71.3158 68.0422 71.3158 65.4212C71.3158 62.8001 73.4316 60.6843 76.0526 60.6843C78.6737 60.6843 80.7895 62.8001 80.7895 65.4212C80.7895 68.0422 78.6737 70.158 76.0526 70.158Z" fill="black"/>
</svg>
